# xmcd
#
# Track frame offsets: 
#        150
#        14514
#        34018
#        51772
#        66833
#        70553
#        80457
#        102020
#        119295
#        135018
#        166486
#        180505
#        198095
#        210510
#        230255
#        240804
#        265546
#
# Disc length: 3702 seconds
#
# Revision: 0
# Processed by: cddbd v1.4PL0 Copyright (c) Steve Scherf et al.
# Submitted via: ExactAudioCopy v0.95a3
#
DISCID=c80e7411
DTITLE=Lee Hazlewood - The Lycanthrope Tour, Europe 2002
DYEAR=2003
DGENRE=Country
TTITLE0=I Move Around
TTITLE1=My Autumn Done Come
TTITLE2=Poet, Fool or Bum
TTITLE3=Rosacoke Street
TTITLE4=Love and Other Crimes
TTITLE5=She COmes Running
TTITLE6=Dirtnap Stories
TTITLE7=Strangers, Lovers, Friends
TTITLE8=For My Birthday
TTITLE9=Soul's Island
TTITLE10=After Six
TTITLE11=All I Ever Lost
TTITLE12=Kolsch In Cologne
TTITLE13=These Boots Are Made For Walking
TTITLE14=Band Introductions
TTITLE15=Whole Lotta Shakin' Goin' On
TTITLE16=Troublemaker
EXTD=
EXTT0=
EXTT1=
EXTT2=
EXTT3=
EXTT4=
EXTT5=
EXTT6=
EXTT7=
EXTT8=
EXTT9=
EXTT10=
EXTT11=
EXTT12=
EXTT13=
EXTT14=
EXTT15=
EXTT16=
PLAYORDER=
